<mxfile host="app.diagrams.net" modified="2021-07-09T02:38:27.585Z" agent="5.0 (Macintosh; Intel Mac OS X 10_15_7) AppleWebKit/537.36 (KHTML, like Gecko) Chrome/91.0.4472.114 Safari/537.36" etag="xlbhKa9YJylM8OVjWsOE" version="14.8.4" type="github">
  <diagram id="dW6FJKauviQKzDM4F4wX" name="Page-1">
    <mxGraphModel dx="1298" dy="809" grid="1" gridSize="10" guides="1" tooltips="1" connect="1" arrows="1" fold="1" page="1" pageScale="1" pageWidth="827" pageHeight="1169" math="0" shadow="0">
      <root>
        <mxCell id="0" />
        <mxCell id="1" parent="0" />
        <mxCell id="pQz34ryBY3EecSFVMVga-1" value="爬虫服务" style="rounded=1;whiteSpace=wrap;html=1;" parent="1" vertex="1">
          <mxGeometry x="176" y="190" width="120" height="60" as="geometry" />
        </mxCell>
        <mxCell id="pQz34ryBY3EecSFVMVga-2" value="疫情新闻" style="ellipse;shape=cloud;whiteSpace=wrap;html=1;" parent="1" vertex="1">
          <mxGeometry x="20" y="20" width="120" height="80" as="geometry" />
        </mxCell>
        <mxCell id="pQz34ryBY3EecSFVMVga-16" style="edgeStyle=orthogonalEdgeStyle;rounded=0;orthogonalLoop=1;jettySize=auto;html=1;exitX=0.55;exitY=0.95;exitDx=0;exitDy=0;exitPerimeter=0;entryX=0.5;entryY=0;entryDx=0;entryDy=0;" parent="1" source="pQz34ryBY3EecSFVMVga-3" target="pQz34ryBY3EecSFVMVga-1" edge="1">
          <mxGeometry relative="1" as="geometry" />
        </mxCell>
        <mxCell id="pQz34ryBY3EecSFVMVga-3" value="疫情数据" style="ellipse;shape=cloud;whiteSpace=wrap;html=1;" parent="1" vertex="1">
          <mxGeometry x="170" y="20" width="120" height="80" as="geometry" />
        </mxCell>
        <mxCell id="pQz34ryBY3EecSFVMVga-4" value="疫情政策" style="ellipse;shape=cloud;whiteSpace=wrap;html=1;" parent="1" vertex="1">
          <mxGeometry x="320" y="20" width="120" height="80" as="geometry" />
        </mxCell>
        <mxCell id="pQz34ryBY3EecSFVMVga-13" value="" style="endArrow=none;dashed=1;html=1;" parent="1" edge="1">
          <mxGeometry width="50" height="50" relative="1" as="geometry">
            <mxPoint y="120" as="sourcePoint" />
            <mxPoint x="870" y="120" as="targetPoint" />
          </mxGeometry>
        </mxCell>
        <mxCell id="pQz34ryBY3EecSFVMVga-14" value="" style="endArrow=classic;html=1;exitX=0.55;exitY=0.95;exitDx=0;exitDy=0;exitPerimeter=0;entryX=0.5;entryY=0;entryDx=0;entryDy=0;" parent="1" source="pQz34ryBY3EecSFVMVga-2" target="pQz34ryBY3EecSFVMVga-1" edge="1">
          <mxGeometry width="50" height="50" relative="1" as="geometry">
            <mxPoint x="300" y="370" as="sourcePoint" />
            <mxPoint x="350" y="320" as="targetPoint" />
          </mxGeometry>
        </mxCell>
        <mxCell id="pQz34ryBY3EecSFVMVga-15" value="" style="endArrow=classic;html=1;exitX=0.55;exitY=0.95;exitDx=0;exitDy=0;exitPerimeter=0;" parent="1" source="pQz34ryBY3EecSFVMVga-4" edge="1">
          <mxGeometry width="50" height="50" relative="1" as="geometry">
            <mxPoint x="300" y="370" as="sourcePoint" />
            <mxPoint x="240" y="190" as="targetPoint" />
            <Array as="points" />
          </mxGeometry>
        </mxCell>
        <mxCell id="pQz34ryBY3EecSFVMVga-18" value="数据处理服务" style="rounded=0;whiteSpace=wrap;html=1;" parent="1" vertex="1">
          <mxGeometry x="430" y="190" width="120" height="60" as="geometry" />
        </mxCell>
        <mxCell id="pQz34ryBY3EecSFVMVga-19" value="数据清洗" style="endArrow=classic;html=1;exitX=1;exitY=0.5;exitDx=0;exitDy=0;entryX=0;entryY=0.5;entryDx=0;entryDy=0;entryPerimeter=0;" parent="1" source="pQz34ryBY3EecSFVMVga-1" target="pQz34ryBY3EecSFVMVga-18" edge="1">
          <mxGeometry relative="1" as="geometry">
            <mxPoint x="270" y="340" as="sourcePoint" />
            <mxPoint x="370" y="340" as="targetPoint" />
          </mxGeometry>
        </mxCell>
        <mxCell id="pQz34ryBY3EecSFVMVga-21" value="CLB" style="ellipse;shape=cloud;whiteSpace=wrap;html=1;" parent="1" vertex="1">
          <mxGeometry x="176" y="510" width="120" height="80" as="geometry" />
        </mxCell>
        <mxCell id="pQz34ryBY3EecSFVMVga-22" value="" style="shape=datastore;whiteSpace=wrap;html=1;" parent="1" vertex="1">
          <mxGeometry x="730" y="230" width="40" height="50" as="geometry" />
        </mxCell>
        <mxCell id="pQz34ryBY3EecSFVMVga-23" value="&lt;br&gt;&lt;br&gt;&lt;br&gt;云数据库" style="ellipse;shape=cloud;whiteSpace=wrap;html=1;align=center;fillColor=none;" parent="1" vertex="1">
          <mxGeometry x="650" y="207" width="230" height="130" as="geometry" />
        </mxCell>
        <mxCell id="pQz34ryBY3EecSFVMVga-24" value="" style="endArrow=classic;html=1;exitX=1;exitY=0.5;exitDx=0;exitDy=0;entryX=0.4;entryY=0.1;entryDx=0;entryDy=0;entryPerimeter=0;" parent="1" source="pQz34ryBY3EecSFVMVga-18" target="pQz34ryBY3EecSFVMVga-23" edge="1">
          <mxGeometry width="50" height="50" relative="1" as="geometry">
            <mxPoint x="300" y="320" as="sourcePoint" />
            <mxPoint x="350" y="270" as="targetPoint" />
          </mxGeometry>
        </mxCell>
        <mxCell id="pQz34ryBY3EecSFVMVga-25" value="API 网关" style="whiteSpace=wrap;html=1;align=center;fillColor=none;" parent="1" vertex="1">
          <mxGeometry x="90" y="450" width="100" height="40" as="geometry" />
        </mxCell>
        <mxCell id="pQz34ryBY3EecSFVMVga-26" value="API 网关" style="whiteSpace=wrap;html=1;align=center;fillColor=none;" parent="1" vertex="1">
          <mxGeometry x="200" y="450" width="100" height="40" as="geometry" />
        </mxCell>
        <mxCell id="pQz34ryBY3EecSFVMVga-27" value="API 网关" style="whiteSpace=wrap;html=1;align=center;fillColor=none;" parent="1" vertex="1">
          <mxGeometry x="314" y="450" width="100" height="40" as="geometry" />
        </mxCell>
        <mxCell id="pQz34ryBY3EecSFVMVga-28" value="" style="endArrow=classic;html=1;exitX=0.4;exitY=0.1;exitDx=0;exitDy=0;exitPerimeter=0;entryX=0.5;entryY=1;entryDx=0;entryDy=0;" parent="1" source="pQz34ryBY3EecSFVMVga-21" target="pQz34ryBY3EecSFVMVga-25" edge="1">
          <mxGeometry width="50" height="50" relative="1" as="geometry">
            <mxPoint x="300" y="380" as="sourcePoint" />
            <mxPoint x="350" y="330" as="targetPoint" />
          </mxGeometry>
        </mxCell>
        <mxCell id="pQz34ryBY3EecSFVMVga-29" value="" style="endArrow=classic;html=1;exitX=0.625;exitY=0.2;exitDx=0;exitDy=0;exitPerimeter=0;entryX=0.5;entryY=1;entryDx=0;entryDy=0;" parent="1" source="pQz34ryBY3EecSFVMVga-21" target="pQz34ryBY3EecSFVMVga-26" edge="1">
          <mxGeometry width="50" height="50" relative="1" as="geometry">
            <mxPoint x="300" y="380" as="sourcePoint" />
            <mxPoint x="350" y="330" as="targetPoint" />
          </mxGeometry>
        </mxCell>
        <mxCell id="pQz34ryBY3EecSFVMVga-31" value="" style="endArrow=classic;html=1;exitX=0.88;exitY=0.25;exitDx=0;exitDy=0;exitPerimeter=0;entryX=0.5;entryY=1;entryDx=0;entryDy=0;" parent="1" source="pQz34ryBY3EecSFVMVga-21" target="pQz34ryBY3EecSFVMVga-27" edge="1">
          <mxGeometry width="50" height="50" relative="1" as="geometry">
            <mxPoint x="300" y="380" as="sourcePoint" />
            <mxPoint x="350" y="330" as="targetPoint" />
          </mxGeometry>
        </mxCell>
        <mxCell id="pQz34ryBY3EecSFVMVga-33" value="service" style="whiteSpace=wrap;html=1;align=center;fillColor=none;" parent="1" vertex="1">
          <mxGeometry x="90" y="330" width="70" height="30" as="geometry" />
        </mxCell>
        <mxCell id="pQz34ryBY3EecSFVMVga-36" value="service" style="whiteSpace=wrap;html=1;align=center;fillColor=none;" parent="1" vertex="1">
          <mxGeometry x="170" y="330" width="70" height="30" as="geometry" />
        </mxCell>
        <mxCell id="pQz34ryBY3EecSFVMVga-37" value="service" style="whiteSpace=wrap;html=1;align=center;fillColor=none;" parent="1" vertex="1">
          <mxGeometry x="250" y="330" width="70" height="30" as="geometry" />
        </mxCell>
        <mxCell id="pQz34ryBY3EecSFVMVga-38" value="service" style="whiteSpace=wrap;html=1;align=center;fillColor=none;" parent="1" vertex="1">
          <mxGeometry x="329" y="330" width="70" height="30" as="geometry" />
        </mxCell>
        <mxCell id="pQz34ryBY3EecSFVMVga-49" style="edgeStyle=orthogonalEdgeStyle;rounded=0;orthogonalLoop=1;jettySize=auto;html=1;exitX=1;exitY=0.5;exitDx=0;exitDy=0;entryX=0;entryY=0.5;entryDx=0;entryDy=0;entryPerimeter=0;" parent="1" source="pQz34ryBY3EecSFVMVga-39" target="pQz34ryBY3EecSFVMVga-45" edge="1">
          <mxGeometry relative="1" as="geometry" />
        </mxCell>
        <mxCell id="pQz34ryBY3EecSFVMVga-39" value="" style="swimlane;startSize=0;fillColor=none;" parent="1" vertex="1">
          <mxGeometry x="80" y="300" width="370" height="80" as="geometry">
            <mxRectangle x="80" y="300" width="50" height="40" as="alternateBounds" />
          </mxGeometry>
        </mxCell>
        <mxCell id="pQz34ryBY3EecSFVMVga-41" value="" style="endArrow=classic;html=1;" parent="1" edge="1">
          <mxGeometry width="50" height="50" relative="1" as="geometry">
            <mxPoint x="249" y="440" as="sourcePoint" />
            <mxPoint x="249" y="390" as="targetPoint" />
          </mxGeometry>
        </mxCell>
        <mxCell id="pQz34ryBY3EecSFVMVga-42" value="" style="endArrow=classic;html=1;" parent="1" edge="1">
          <mxGeometry width="50" height="50" relative="1" as="geometry">
            <mxPoint x="169" y="440" as="sourcePoint" />
            <mxPoint x="169" y="390" as="targetPoint" />
          </mxGeometry>
        </mxCell>
        <mxCell id="pQz34ryBY3EecSFVMVga-43" value="" style="endArrow=classic;html=1;" parent="1" edge="1">
          <mxGeometry width="50" height="50" relative="1" as="geometry">
            <mxPoint x="329" y="440" as="sourcePoint" />
            <mxPoint x="329" y="390" as="targetPoint" />
          </mxGeometry>
        </mxCell>
        <mxCell id="pQz34ryBY3EecSFVMVga-47" style="edgeStyle=orthogonalEdgeStyle;rounded=0;orthogonalLoop=1;jettySize=auto;html=1;exitX=1;exitY=0.5;exitDx=0;exitDy=0;exitPerimeter=0;entryX=0.55;entryY=0.95;entryDx=0;entryDy=0;entryPerimeter=0;" parent="1" source="pQz34ryBY3EecSFVMVga-45" target="pQz34ryBY3EecSFVMVga-23" edge="1">
          <mxGeometry relative="1" as="geometry" />
        </mxCell>
        <mxCell id="pQz34ryBY3EecSFVMVga-45" value="redis" style="strokeWidth=2;html=1;shape=mxgraph.flowchart.database;whiteSpace=wrap;fillColor=none;" parent="1" vertex="1">
          <mxGeometry x="530" y="370" width="60" height="60" as="geometry" />
        </mxCell>
        <mxCell id="pQz34ryBY3EecSFVMVga-58" value="" style="endArrow=none;dashed=1;html=1;" parent="1" edge="1">
          <mxGeometry width="50" height="50" relative="1" as="geometry">
            <mxPoint y="600" as="sourcePoint" />
            <mxPoint x="890" y="600" as="targetPoint" />
          </mxGeometry>
        </mxCell>
        <mxCell id="pQz34ryBY3EecSFVMVga-62" value="审核服务" style="whiteSpace=wrap;html=1;align=center;fillColor=none;" parent="1" vertex="1">
          <mxGeometry x="690" y="490" width="100" height="40" as="geometry" />
        </mxCell>
        <mxCell id="pQz34ryBY3EecSFVMVga-63" value="" style="endArrow=classic;startArrow=classic;html=1;exitX=0.5;exitY=0;exitDx=0;exitDy=0;" parent="1" source="pQz34ryBY3EecSFVMVga-62" edge="1">
          <mxGeometry width="50" height="50" relative="1" as="geometry">
            <mxPoint x="300" y="430" as="sourcePoint" />
            <mxPoint x="741" y="328" as="targetPoint" />
          </mxGeometry>
        </mxCell>
        <mxCell id="pQz34ryBY3EecSFVMVga-64" value="" style="shape=actor;whiteSpace=wrap;html=1;fillColor=none;" parent="1" vertex="1">
          <mxGeometry x="90" y="660" width="44" height="50" as="geometry" />
        </mxCell>
        <mxCell id="pQz34ryBY3EecSFVMVga-65" value="" style="shape=actor;whiteSpace=wrap;html=1;fillColor=none;" parent="1" vertex="1">
          <mxGeometry x="146" y="660" width="44" height="50" as="geometry" />
        </mxCell>
        <mxCell id="pQz34ryBY3EecSFVMVga-66" value="" style="shape=actor;whiteSpace=wrap;html=1;fillColor=none;" parent="1" vertex="1">
          <mxGeometry x="200" y="660" width="44" height="50" as="geometry" />
        </mxCell>
        <mxCell id="pQz34ryBY3EecSFVMVga-67" value="" style="shape=actor;whiteSpace=wrap;html=1;fillColor=none;" parent="1" vertex="1">
          <mxGeometry x="252" y="660" width="44" height="50" as="geometry" />
        </mxCell>
        <mxCell id="pQz34ryBY3EecSFVMVga-68" value="" style="shape=actor;whiteSpace=wrap;html=1;fillColor=none;" parent="1" vertex="1">
          <mxGeometry x="310" y="660" width="44" height="50" as="geometry" />
        </mxCell>
        <mxCell id="pQz34ryBY3EecSFVMVga-71" value="" style="swimlane;startSize=0;fillColor=none;" parent="1" vertex="1">
          <mxGeometry x="51" y="645" width="370" height="80" as="geometry">
            <mxRectangle x="80" y="300" width="50" height="40" as="alternateBounds" />
          </mxGeometry>
        </mxCell>
        <mxCell id="pQz34ryBY3EecSFVMVga-72" value="前端页面" style="text;html=1;align=center;verticalAlign=middle;resizable=0;points=[];autosize=1;strokeColor=none;" parent="1" vertex="1">
          <mxGeometry x="50" y="645" width="60" height="20" as="geometry" />
        </mxCell>
        <mxCell id="pQz34ryBY3EecSFVMVga-73" value="审核人员" style="shape=actor;whiteSpace=wrap;html=1;fillColor=none;" parent="1" vertex="1">
          <mxGeometry x="705" y="645" width="70" height="60" as="geometry" />
        </mxCell>
        <mxCell id="pQz34ryBY3EecSFVMVga-74" value="" style="endArrow=classic;html=1;entryX=0.5;entryY=1;entryDx=0;entryDy=0;" parent="1" target="pQz34ryBY3EecSFVMVga-62" edge="1">
          <mxGeometry width="50" height="50" relative="1" as="geometry">
            <mxPoint x="740" y="640" as="sourcePoint" />
            <mxPoint x="350" y="370" as="targetPoint" />
          </mxGeometry>
        </mxCell>
        <mxCell id="pQz34ryBY3EecSFVMVga-75" value="" style="endArrow=classic;html=1;" parent="1" edge="1">
          <mxGeometry width="50" height="50" relative="1" as="geometry">
            <mxPoint x="200" y="640" as="sourcePoint" />
            <mxPoint x="200" y="590" as="targetPoint" />
          </mxGeometry>
        </mxCell>
        <mxCell id="pQz34ryBY3EecSFVMVga-76" value="" style="endArrow=classic;html=1;" parent="1" edge="1">
          <mxGeometry width="50" height="50" relative="1" as="geometry">
            <mxPoint x="232.5" y="640" as="sourcePoint" />
            <mxPoint x="232.5" y="590" as="targetPoint" />
          </mxGeometry>
        </mxCell>
        <mxCell id="pQz34ryBY3EecSFVMVga-77" value="" style="endArrow=classic;html=1;" parent="1" edge="1">
          <mxGeometry width="50" height="50" relative="1" as="geometry">
            <mxPoint x="264.5" y="640" as="sourcePoint" />
            <mxPoint x="264.5" y="590" as="targetPoint" />
          </mxGeometry>
        </mxCell>
      </root>
    </mxGraphModel>
  </diagram>
</mxfile>
